{"asset":{"version":"2.0","generator":"Unity 6000.0.62f1 glTFast 6.16.0"},"nodes":[{"name":"C.025","mesh":0,"translation":[11.7683563,-0.6163777,-15.7005024],"rotation":[-0.5,-0.5,-0.5,0.5],"scale":[100,100,100]},{"name":"C.026","mesh":1,"translation":[17.9114857,4.345489,-30.4344673],"rotation":[0.707106769,0,0,-0.7071067],"scale":[100,99.99999,99.99999]},{"name":"C.027","mesh":2,"translation":[23.4429016,4.345489,-25.645565],"rotation":[0.707106769,0,0,-0.7071067],"scale":[100,99.99999,99.99999]},{"name":"C.028","mesh":3,"translation":[28.98674,4.3454895,-20.9856472],"rotation":[0.707106769,0,0,-0.7071067],"scale":[100,99.99999,99.99999]}],"buffers":[{"uri":"SampleScene.bin","byteLength":122400}],"bufferViews":[{"buffer":0,"byteLength":504,"target":34963},{"buffer":0,"byteLength":1368,"byteOffset":504,"target":34963},{"buffer":0,"byteLength":2232,"byteOffset":1872,"target":34963},{"buffer":0,"byteLength":3096,"byteOffset":4104,"target":34963},{"buffer":0,"byteLength":8064,"byteOffset":7200,"byteStride":48,"target":34962},{"buffer":0,"byteLength":21888,"byteOffset":15264,"byteStride":48,"target":34962},{"buffer":0,"byteLength":35712,"byteOffset":37152,"byteStride":48,"target":34962},{"buffer":0,"byteLength":49536,"byteOffset":72864,"byteStride":48,"target":34962}],"accessors":[{"bufferView":4,"componentType":5126,"count":168,"type":"VEC3","max":[0.008642463,0.0275370069,0.0189097449],"min":[-0.008642616,-0.027536992,-0.0205379128]},{"bufferView":4,"componentType":5126,"count":168,"type":"VEC3","byteOffset":12},{"bufferView":4,"componentType":5126,"count":168,"type":"VEC4","byteOffset":24},{"bufferView":4,"componentType":5126,"count":168,"type":"VEC2","byteOffset":40},{"bufferView":0,"componentType":5123,"count":252,"type":"SCALAR"},{"bufferView":5,"componentType":5126,"count":456,"type":"VEC3","max":[0.0284110345,0.0108558079,0.0389028043],"min":[-0.02866513,-0.0108558079,-0.0691035241]},{"bufferView":5,"componentType":5126,"count":456,"type":"VEC3","byteOffset":12},{"bufferView":5,"componentType":5126,"count":456,"type":"VEC4","byteOffset":24},{"bufferView":5,"componentType":5126,"count":456,"type":"VEC2","byteOffset":40},{"bufferView":1,"componentType":5123,"count":108,"type":"SCALAR"},{"bufferView":1,"componentType":5123,"count":432,"type":"SCALAR","byteOffset":216},{"bufferView":1,"componentType":5123,"count":144,"type":"SCALAR","byteOffset":1080},{"bufferView":6,"componentType":5126,"count":744,"type":"VEC3","max":[0.0837900341,0.0108558079,0.0389028043],"min":[-0.08397931,-0.0108558079,-0.0691035241]},{"bufferView":6,"componentType":5126,"count":744,"type":"VEC3","byteOffset":12},{"bufferView":6,"componentType":5126,"count":744,"type":"VEC4","byteOffset":24},{"bufferView":6,"componentType":5126,"count":744,"type":"VEC2","byteOffset":40},{"bufferView":2,"componentType":5123,"count":108,"type":"SCALAR"},{"bufferView":2,"componentType":5123,"count":864,"type":"SCALAR","byteOffset":216},{"bufferView":2,"componentType":5123,"count":144,"type":"SCALAR","byteOffset":1944},{"bufferView":7,"componentType":5126,"count":1032,"type":"VEC3","max":[0.139044836,0.0108558079,0.0389027968],"min":[-0.139417663,-0.0108558079,-0.06910353]},{"bufferView":7,"componentType":5126,"count":1032,"type":"VEC3","byteOffset":12},{"bufferView":7,"componentType":5126,"count":1032,"type":"VEC4","byteOffset":24},{"bufferView":7,"componentType":5126,"count":1032,"type":"VEC2","byteOffset":40},{"bufferView":3,"componentType":5123,"count":108,"type":"SCALAR"},{"bufferView":3,"componentType":5123,"count":1296,"type":"SCALAR","byteOffset":216},{"bufferView":3,"componentType":5123,"count":144,"type":"SCALAR","byteOffset":2808}],"images":[{"name":"Metal_15.jpg","uri":"Metal_15.jpg","mimeType":"image/jpeg"},{"name":"Wood_07.jpg","uri":"Wood_07.jpg","mimeType":"image/jpeg"},{"name":"Metal_12.jpg","uri":"Metal_12.jpg","mimeType":"image/jpeg"},{"name":"Metal_11.jpg","uri":"Metal_11.jpg","mimeType":"image/jpeg"}],"materials":[{"name":"Metal_15","pbrMetallicRoughness":{"metallicFactor":0,"baseColorTexture":{"index":0}}},{"name":"Wood_07","pbrMetallicRoughness":{"metallicFactor":0,"baseColorTexture":{"index":1}}},{"name":"Metal_12","pbrMetallicRoughness":{"metallicFactor":0,"baseColorTexture":{"index":2}}},{"name":"Metal_11","pbrMetallicRoughness":{"metallicFactor":0,"baseColorTexture":{"index":3}}}],"meshes":[{"name":"C.025","primitives":[{"attributes":{"POSITION":0,"NORMAL":1,"TANGENT":2,"TEXCOORD_0":3},"indices":4,"material":0}]},{"name":"C.026","primitives":[{"attributes":{"POSITION":5,"NORMAL":6,"TANGENT":7,"TEXCOORD_0":8},"indices":9,"material":1},{"attributes":{"POSITION":5,"NORMAL":6,"TANGENT":7,"TEXCOORD_0":8},"indices":10,"material":2},{"attributes":{"POSITION":5,"NORMAL":6,"TANGENT":7,"TEXCOORD_0":8},"indices":11,"material":3}]},{"name":"C.027","primitives":[{"attributes":{"POSITION":12,"NORMAL":13,"TANGENT":14,"TEXCOORD_0":15},"indices":16,"material":1},{"attributes":{"POSITION":12,"NORMAL":13,"TANGENT":14,"TEXCOORD_0":15},"indices":17,"material":2},{"attributes":{"POSITION":12,"NORMAL":13,"TANGENT":14,"TEXCOORD_0":15},"indices":18,"material":3}]},{"name":"C.028","primitives":[{"attributes":{"POSITION":19,"NORMAL":20,"TANGENT":21,"TEXCOORD_0":22},"indices":23,"material":1},{"attributes":{"POSITION":19,"NORMAL":20,"TANGENT":21,"TEXCOORD_0":22},"indices":24,"material":2},{"attributes":{"POSITION":19,"NORMAL":20,"TANGENT":21,"TEXCOORD_0":22},"indices":25,"material":3}]}],"scene":0,"scenes":[{"name":"SampleScene","nodes":[0,1,2,3]}],"textures":[{"source":0},{"source":1},{"source":2},{"source":3}]}