{"asset":{"version":"2.0","generator":"Unity 6000.0.62f1 glTFast 6.16.0"},"nodes":[{"name":"Book_03","mesh":0,"translation":[2.16928267,0.06490071,-1.64148378],"rotation":[3.090862E-08,-0.707106769,0.7071067,-3.090862E-08],"scale":[-15.3600931,-17.17286,-17.17286]}],"buffers":[{"uri":"Book_03.bin","byteLength":1224}],"bufferViews":[{"buffer":0,"byteLength":72,"target":34963},{"buffer":0,"byteLength":1152,"byteOffset":72,"byteStride":48,"target":34962}],"accessors":[{"bufferView":1,"componentType":5126,"count":24,"type":"VEC3","max":[0.008792419,0.0118684061,0.00284599653],"min":[-0.008792419,-0.0118684061,-0.00162054843]},{"bufferView":1,"componentType":5126,"count":24,"type":"VEC3","byteOffset":12},{"bufferView":1,"componentType":5126,"count":24,"type":"VEC4","byteOffset":24},{"bufferView":1,"componentType":5126,"count":24,"type":"VEC2","byteOffset":40},{"bufferView":0,"componentType":5123,"count":36,"type":"SCALAR"}],"images":[{"name":"Entertainment.png","uri":"Entertainment.png","mimeType":"image/png"}],"materials":[{"name":"Entertainment","pbrMetallicRoughness":{"metallicFactor":0,"baseColorTexture":{"index":0}}}],"meshes":[{"name":"Book_03","primitives":[{"attributes":{"POSITION":0,"NORMAL":1,"TANGENT":2,"TEXCOORD_0":3},"indices":4,"material":0}]}],"scene":0,"scenes":[{"name":"Book_03","nodes":[0]}],"textures":[{"source":0}]}