{"asset":{"version":"2.0","generator":"Unity 6000.0.62f1 glTFast 6.16.0"},"nodes":[{"name":"clothbag","mesh":0,"translation":[-0.7999999,0,-15.7999992],"rotation":[0.707106769,0,0,-0.7071067],"scale":[61.4400024,61.44,61.44]}],"buffers":[{"uri":"basket.bin","byteLength":11736}],"bufferViews":[{"buffer":0,"byteLength":984,"target":34963},{"buffer":0,"byteLength":10752,"byteOffset":984,"byteStride":48,"target":34962}],"accessors":[{"bufferView":1,"componentType":5126,"count":224,"type":"VEC3","max":[0.00743966457,0.00555,0.006],"min":[-0.00743966457,-0.00555,0]},{"bufferView":1,"componentType":5126,"count":224,"type":"VEC3","byteOffset":12},{"bufferView":1,"componentType":5126,"count":224,"type":"VEC4","byteOffset":24},{"bufferView":1,"componentType":5126,"count":224,"type":"VEC2","byteOffset":40},{"bufferView":0,"componentType":5123,"count":492,"type":"SCALAR"}],"images":[{"name":"atlas_bath.jpg","uri":"atlas_bath.jpg","mimeType":"image/jpeg"}],"materials":[{"name":"atlas_bath","pbrMetallicRoughness":{"metallicFactor":0,"baseColorTexture":{"index":0}}}],"meshes":[{"name":"clothbag","primitives":[{"attributes":{"POSITION":0,"NORMAL":1,"TANGENT":2,"TEXCOORD_0":3},"indices":4,"material":0}]}],"scene":0,"scenes":[{"name":"clothbag","nodes":[0]}],"textures":[{"source":0}]}