# Blender 4.3.2
# www.blender.org
mtllib shotgun.mtl
o shotgun
v -0.023859 1.541971 -18.013706
v 0.329694 1.395524 -18.013706
v 0.476141 1.041971 -18.013706
v 0.329694 0.688418 -18.013706
v -0.023859 0.541971 -18.013706
v -0.377412 0.688418 -18.013706
v -0.523859 1.041971 -18.013706
v -0.377412 1.395524 -18.013706
v -0.023859 1.401971 -18.013706
v 0.230700 1.296530 -18.013706
v 0.336141 1.041971 -18.013706
v 0.230700 0.787413 -18.013706
v -0.023859 0.681971 -18.013706
v -0.278417 0.787413 -18.013706
v -0.383859 1.041971 -18.013706
v -0.278417 1.296530 -18.013706
v -0.278417 1.296532 -0.713707
v -0.383859 1.041974 -0.713707
v -0.278417 0.787415 -0.713707
v -0.023859 0.681974 -0.713707
v 0.230700 0.787415 -0.713707
v 0.230700 1.296532 -0.713707
v -0.023859 1.401974 -0.713707
v -0.377412 1.395527 1.186293
v -0.523859 1.041974 1.186293
v -0.377412 0.688421 1.186293
v -0.023859 0.541974 1.186293
v 0.329694 0.688421 1.186293
v 0.476141 1.041974 1.186293
v 0.329694 1.395527 1.186293
v -0.023859 1.541974 1.186293
v -0.523859 -0.558026 4.486294
v -0.523859 1.541974 4.486294
v -0.523859 -0.558027 -2.513706
v -0.523859 1.541973 -2.513706
v 0.476141 -0.558026 4.486294
v 0.476141 1.541974 4.486294
v 0.476141 -0.558027 -2.513706
v 0.476141 1.541973 -2.513706
v -0.377412 0.295527 1.186293
v -0.523859 -0.058026 1.186293
v -0.377412 -0.411579 1.186293
v -0.023859 -0.558026 1.186293
v 0.329694 -0.411579 1.186293
v 0.476141 -0.058026 1.186293
v 0.329694 0.295527 1.186293
v -0.023859 0.441974 1.186293
v -0.377412 0.295526 -15.713707
v -0.523858 -0.058027 -15.713707
v -0.377412 -0.411581 -15.713707
v -0.023858 -0.558027 -15.713707
v 0.329695 -0.411581 -15.713707
v 0.476142 -0.058027 -15.713707
v 0.329695 0.295526 -15.713707
v -0.023858 0.441973 -15.713707
v -0.323859 -0.838026 6.586294
v -0.323859 0.421974 6.586294
v 0.276141 -0.838026 6.586294
v 0.276141 0.421974 6.586294
v -0.623859 -2.168025 13.486294
v -0.623859 0.351974 13.486294
v 0.576141 -2.168025 13.486294
v 0.576141 0.351974 13.486294
v -0.023859 -1.122548 1.986294
v 0.149829 -1.099757 1.986294
v 0.149829 -1.054176 1.986294
v -0.023859 -1.031385 1.986294
v -0.197546 -1.054176 1.986294
v -0.197546 -1.099757 1.986294
v -0.023859 -0.910420 1.251462
v 0.149828 -0.899024 1.290936
v 0.149828 -0.876234 1.369885
v -0.023859 -0.864839 1.409359
v -0.197547 -0.876234 1.369885
v -0.197547 -0.899024 1.290936
v -0.023859 -0.486164 1.251462
v 0.149828 -0.497560 1.290936
v 0.149828 -0.520350 1.369885
v -0.023859 -0.531746 1.409359
v -0.197547 -0.520350 1.369885
v -0.197547 -0.497560 1.290936
v -0.023859 -0.486164 2.721125
v 0.149829 -0.497560 2.681651
v 0.149829 -0.520350 2.602702
v -0.023859 -0.531746 2.563228
v -0.197546 -0.520350 2.602702
v -0.197546 -0.497560 2.681651
v -0.023859 -0.910420 2.721125
v 0.149829 -0.899024 2.681651
v 0.149829 -0.876234 2.602702
v -0.023859 -0.864839 2.563228
v -0.197546 -0.876234 2.602702
v -0.197546 -0.899024 2.681651
v 0.025895 -0.800699 1.906024
v 0.025895 -0.477850 2.129081
v 0.025895 -0.664203 2.129081
v -0.073613 -0.800699 1.906024
v -0.073613 -0.477850 2.129081
v -0.073613 -0.664203 2.129081
v 0.030871 -0.823853 1.922581
v 0.026141 -0.478027 2.156294
v 0.026141 -0.678026 2.156294
v -0.078588 -0.823853 1.922581
v -0.073859 -0.478027 2.156294
v -0.073859 -0.678026 2.156294
v -0.412767 0.330881 -15.693707
v -0.573858 -0.058027 -15.693707
v -0.412767 -0.446936 -15.693707
v -0.023858 -0.608027 -15.693707
v 0.365051 -0.446936 -15.693707
v 0.526142 -0.058027 -15.693707
v 0.365051 0.330881 -15.693707
v -0.023858 0.491973 -15.693707
v -0.412767 0.330881 -16.533707
v -0.573858 -0.058027 -16.533707
v -0.412767 -0.446936 -16.533707
v -0.023858 -0.608028 -16.533707
v 0.365051 -0.446936 -16.533707
v 0.526142 -0.058027 -16.533707
v 0.365051 0.330881 -16.533707
v -0.023858 0.491973 -16.533707
v 0.476141 0.641973 0.786294
v 0.476141 1.441973 0.786294
v 0.476141 0.641973 -0.813706
v 0.476141 1.441973 -0.813706
v 0.476141 -0.558027 0.786294
v -0.023859 1.541973 -0.713707
v -0.523859 1.041973 -0.713707
v 0.329694 0.688420 0.786293
v -0.023859 1.541974 0.786293
v -0.523859 1.041974 0.786293
v -0.377412 1.395527 0.786293
v -0.377412 0.688420 0.786293
v 0.476141 1.041974 0.786293
v 0.329694 1.395527 0.786293
v -0.023859 0.541974 0.786293
v 0.336141 1.041974 -0.713707
v 0.329694 0.688420 -0.713707
v -0.023859 0.541973 -0.713706
v -0.377412 1.395527 -0.713707
v -0.377412 0.688420 -0.713707
v 0.476141 1.041973 -0.713707
v 0.329694 1.395527 -0.713707
v -0.523859 -0.558027 0.786294
v 0.476141 -0.558027 -1.563706
v -0.523859 -0.558027 -1.563706
v -0.423859 -0.558027 0.711294
v 0.376141 -0.558027 -1.488706
v -0.423859 -0.558027 -1.488706
v 0.376141 -0.558027 0.711294
v -0.023859 0.441974 -1.263707
v -0.377412 0.295527 -1.263707
v 0.329695 -0.411579 -1.263707
v 0.476141 -0.058026 -1.263707
v -0.023859 -0.558026 -1.263707
v 0.329695 0.295527 -1.263707
v -0.377412 -0.411579 -1.263707
v -0.523859 -0.058026 -1.263707
v -0.377412 0.295527 0.451293
v 0.476141 -0.058026 0.451293
v -0.023859 0.441974 0.451293
v 0.329695 -0.411579 0.451293
v -0.023859 -0.558026 0.451293
v 0.329695 0.295527 0.451293
v -0.377412 -0.411579 0.451293
v -0.523859 -0.058026 0.451293
vn -0.0000 -0.0000 -1.0000
vn -0.3827 -0.9239 -0.0000
vn 0.9239 -0.3827 -0.0000
vn -0.9239 0.3827 -0.0000
vn 0.3827 0.9239 -0.0000
vn -0.9239 -0.3827 -0.0000
vn -0.3827 0.9239 -0.0000
vn 0.9239 0.3827 -0.0000
vn 0.3827 -0.9239 -0.0000
vn -0.0000 -0.0000 1.0000
vn 1.0000 -0.0000 -0.0000
vn -0.9955 -0.0000 0.0948
vn -0.0000 -1.0000 -0.0000
vn 0.1520 0.3671 0.9177
vn -0.0000 0.9999 0.0101
vn -0.0000 0.8824 0.4706
vn 0.9955 -0.0000 0.0948
vn 0.9991 -0.0000 -0.0434
vn -0.0000 -0.9819 -0.1893
vn -0.9991 -0.0000 -0.0434
vn 0.1251 -0.9532 -0.2752
vn 0.1251 0.9532 0.2752
vn -0.1251 0.9532 0.2752
vn -1.0000 -0.0000 -0.0000
vn -0.1251 -0.9532 -0.2752
vn 0.2216 -0.0000 -0.9751
vn 0.2216 -0.0000 0.9751
vn -0.2216 -0.0000 0.9751
vn -0.2216 -0.0000 -0.9751
vn 0.1251 -0.9532 0.2752
vn 0.1251 0.9532 -0.2752
vn -0.1251 0.9532 -0.2752
vn -0.1251 -0.9532 0.2752
vn -0.0000 0.8530 -0.5220
vn -0.0000 -0.8484 0.5294
vn -0.0000 -0.5817 -0.8134
vn -0.9951 0.0882 -0.0442
vn 0.9951 0.0882 -0.0442
vn -0.0000 -1.0000 -0.0065
vn 1.0000 -0.0000 0.0090
vn -1.0000 -0.0000 0.0090
vn 0.3671 0.1520 0.9177
vn -0.3671 -0.1520 0.9177
vn 0.3671 -0.1520 0.9177
vn 0.1520 -0.3671 0.9177
vn -0.3671 0.1520 0.9177
vn -0.1520 0.3671 0.9177
vn -0.1520 -0.3671 0.9177
vn -0.0000 1.0000 -0.0000
vn -0.0000 -0.9912 -0.1322
vt 1.000000 0.023438
vt 1.000000 0.046875
vt 1.000000 0.125000
vt 1.000000 0.140625
vt 1.000000 0.062500
vt 1.000000 0.085938
vt 1.000000 0.164062
vt 1.000000 0.187500
vt 1.000000 0.101562
vt 0.101562 0.085938
vt 0.101562 0.101562
vt 0.101562 0.125000
vt 0.101562 0.140625
vt 0.101562 0.046875
vt 0.101562 0.062500
vt 0.023438 0.101562
vt 0.000000 0.101562
vt 0.000000 0.085938
vt 0.023438 0.085938
vt 0.023438 0.125000
vt 0.000000 0.125000
vt 0.101562 0.164062
vt 0.101562 0.187500
vt 0.000000 0.062500
vt 0.023438 0.062500
vt 0.101562 0.023438
vt 0.023438 0.140625
vt 0.000000 0.140625
vt 0.023438 0.164062
vt 0.000000 0.164062
vt 0.000000 0.000000
vt 0.000000 0.023438
vt 0.000000 0.046875
vt 0.023438 0.046875
vt 0.937500 0.875000
vt 0.937500 1.000000
vt 1.000000 1.000000
vt 1.000000 0.875000
vt 0.500000 0.656250
vt 0.726562 0.726562
vt 0.726562 0.773438
vt 0.500000 0.781250
vt 0.484375 0.781250
vt 0.484375 0.656250
vt 0.351562 0.656250
vt 0.351562 0.726562
vt 0.921875 0.656250
vt 0.820312 0.726562
vt 0.726562 0.656250
vt 0.859375 0.851562
vt 0.867188 0.859375
vt 0.726562 0.859375
vt 0.734375 0.851562
vt 0.000000 0.273438
vt 0.000000 0.296875
vt 0.000000 0.320312
vt 0.000000 0.171875
vt 0.000000 0.195312
vt 0.000000 0.218750
vt 0.000000 0.234375
vt 0.000000 0.257812
vt 0.953125 0.359375
vt 0.953125 0.335938
vt 0.140625 0.296875
vt 0.140625 0.273438
vt 0.953125 0.273438
vt 0.953125 0.296875
vt 0.140625 0.234375
vt 0.140625 0.218750
vt 0.953125 0.218750
vt 0.953125 0.234375
vt 0.140625 0.195312
vt 0.953125 0.195312
vt 0.140625 0.257812
vt 0.953125 0.257812
vt 0.140625 0.359375
vt 0.140625 0.335938
vt 0.140625 0.320312
vt 0.953125 0.320312
vt 0.117188 0.804688
vt 0.117188 0.843750
vt 0.335938 0.867188
vt 0.335938 0.789062
vt 0.351562 0.867188
vt 0.351562 0.789062
vt 0.484375 0.796875
vt 0.484375 0.859375
vt 0.484375 1.000000
vt 0.484375 0.875000
vt 0.351562 0.921875
vt 0.351562 1.000000
vt 0.937500 0.859375
vt 0.937500 0.781250
vt 0.976562 0.781250
vt 0.976562 0.859375
vt 0.125000 0.687500
vt 0.125000 0.726562
vt 0.335938 0.726562
vt 0.335938 0.656250
vt 0.125000 0.921875
vt 0.125000 0.960938
vt 0.335938 1.000000
vt 0.335938 0.921875
vt 0.414062 0.578125
vt 0.484375 0.578125
vt 0.484375 0.593750
vt 0.414062 0.585938
vt 0.476562 0.593750
vt 0.468750 0.578125
vt 0.414062 0.640625
vt 0.468750 0.640625
vt 0.476562 0.632812
vt 0.414062 0.632812
vt 0.484375 0.632812
vt 0.484375 0.640625
vt 0.484375 0.601562
vt 0.476562 0.601562
vt 0.476562 0.617188
vt 0.484375 0.617188
vt 0.335938 0.578125
vt 0.343750 0.593750
vt 0.343750 0.601562
vt 0.351562 0.593750
vt 0.351562 0.601562
vt 0.351562 0.578125
vt 0.351562 0.640625
vt 0.351562 0.632812
vt 0.351562 0.617188
vt 0.343750 0.632812
vt 0.343750 0.617188
vt 0.335938 0.640625
vt 0.421875 0.609375
vt 0.398438 0.601562
vt 0.398438 0.617188
vt 0.398438 0.632812
vt 0.421875 0.640625
vt 0.390625 0.640625
vt 0.390625 0.632812
vt 1.000000 0.257812
vt 1.000000 0.273438
vt 1.000000 0.335938
vt 1.000000 0.359375
vt 1.000000 0.320312
vt 1.000000 0.234375
vt 1.000000 0.296875
vt 1.000000 0.218750
vt 1.000000 0.195312
vt 0.820312 0.773438
vt 0.921875 0.781250
vt 0.867188 0.796875
vt 0.859375 0.804688
vt 0.023438 0.000000
vt 0.023438 0.023438
vt 0.921875 0.796875
vt 0.921875 0.859375
vt 0.726562 0.796875
vt 0.500000 0.859375
vt 0.500000 0.796875
vt 0.726562 0.875000
vt 0.500000 0.875000
vt 0.500000 1.000000
vt 0.921875 1.000000
vt 0.921875 0.875000
vt 0.867188 0.875000
vt 0.734375 0.804688
vt 0.039062 0.320312
vt 0.039062 0.296875
vt 0.039062 0.257812
vt 0.039062 0.234375
vt 0.039062 0.335938
vt 0.039062 0.273438
vt 0.039062 0.218750
vt 0.039062 0.195312
vt 0.000000 0.359375
vt 0.000000 0.335938
vt 0.039062 0.359375
vt 0.921875 0.578125
vt 0.500000 0.578125
vt 0.500000 0.640625
vt 0.921875 0.640625
vt 0.430434 0.634708
vt 0.448112 0.627385
vt 0.455434 0.609708
vt 0.448112 0.592030
vt 0.430434 0.584708
vt 0.412757 0.592030
vt 0.405434 0.609708
vt 0.412757 0.627385
s 0
usemtl shotgun
f 5/1/1 13/1/1 12/2/1 4/2/1
f 8/3/1 16/3/1 15/4/1 7/4/1
f 3/5/1 11/5/1 10/6/1 2/6/1
f 6/7/1 14/7/1 13/8/1 5/8/1
f 1/9/1 9/9/1 16/3/1 8/3/1
f 2/6/1 10/6/1 9/9/1 1/9/1
f 4/2/1 12/2/1 11/5/1 3/5/1
f 7/4/1 15/4/1 14/7/1 6/7/1
f 10/6/2 22/10/2 23/11/2 9/9/2
f 16/3/3 17/12/3 18/13/3 15/4/3
f 12/2/4 21/14/4 137/15/4 11/5/4
f 130/16/5 31/17/5 30/18/5 135/19/5
f 11/5/6 137/15/6 22/10/6 10/6/6
f 132/20/7 24/21/7 31/17/7 130/16/7
f 14/7/5 19/22/5 20/23/5 13/8/5
f 135/19/8 30/18/8 29/24/8 134/25/8
f 9/9/9 23/11/9 17/12/9 16/3/9
f 13/1/7 20/26/7 21/14/7 12/2/7
f 15/4/8 18/13/8 19/22/8 14/7/8
f 131/27/4 25/28/4 24/21/4 132/20/4
f 133/29/6 26/30/6 25/28/6 131/27/6
f 31/17/10 24/21/10 25/28/10 26/31/10 27/32/10 28/33/10 29/24/10 30/18/10
f 134/25/3 29/24/3 28/33/3 129/34/3
f 34/35/1 35/36/1 39/37/1 38/38/1
f 36/39/11 122/40/11 123/41/11 37/42/11
f 33/43/12 32/44/12 56/45/12 57/46/12
f 38/47/11 124/48/11 122/40/11 126/49/11
f 148/50/13 145/51/13 126/52/13 150/53/13
f 47/54/10 40/55/10 41/56/10 42/57/10 43/58/10 44/59/10 45/60/10 46/61/10
f 51/62/14 50/63/14 108/63/14 109/62/14
f 152/64/7 151/65/7 55/66/7 48/67/7
f 154/68/3 153/69/3 52/70/3 53/71/3
f 153/69/9 155/72/9 51/73/9 52/70/9
f 151/65/5 156/74/5 54/75/5 55/66/5
f 155/76/2 157/77/2 50/63/2 51/62/2
f 157/77/6 158/78/6 49/79/6 50/63/6
f 156/74/8 154/68/8 53/71/8 54/75/8
f 158/78/4 152/64/4 48/67/4 49/79/4
f 59/80/15 57/81/15 61/82/15 63/83/15
f 37/84/16 33/85/16 57/86/16 59/87/16
f 36/88/17 37/89/17 59/90/17 58/91/17
f 62/92/10 63/93/10 61/94/10 60/95/10
f 58/96/18 59/97/18 63/98/18 62/99/18
f 56/81/19 58/80/19 62/83/19 60/82/19
f 57/100/20 56/101/20 60/102/20 61/103/20
f 64/104/21 70/105/21 71/106/21 65/107/21
f 65/107/11 71/106/11 72/108/11 66/107/11
f 66/107/22 72/108/22 73/109/22 67/104/22
f 67/110/23 73/111/23 74/112/23 68/113/23
f 68/113/24 74/112/24 75/114/24 69/113/24
f 69/113/25 75/114/25 70/115/25 64/110/25
f 70/105/26 76/105/26 77/116/26 71/106/26
f 71/106/11 77/116/11 78/117/11 72/108/11
f 72/108/27 78/117/27 79/109/27 73/109/27
f 73/111/28 79/111/28 80/118/28 74/112/28
f 74/112/24 80/118/24 81/119/24 75/114/24
f 75/114/29 81/119/29 76/115/29 70/115/29
f 82/120/27 88/120/27 89/121/27 83/122/27
f 83/122/11 89/121/11 90/123/11 84/124/11
f 84/124/26 90/123/26 91/125/26 85/125/26
f 85/126/29 91/126/29 92/127/29 86/128/29
f 86/128/24 92/127/24 93/129/24 87/130/24
f 87/130/28 93/129/28 88/131/28 82/131/28
f 88/120/30 64/104/30 65/107/30 89/121/30
f 89/121/11 65/107/11 66/107/11 90/123/11
f 90/123/31 66/107/31 67/104/31 91/125/31
f 91/126/32 67/110/32 68/113/32 92/127/32
f 92/127/24 68/113/24 69/113/24 93/129/24
f 93/129/33 69/113/33 64/110/33 88/131/33
f 94/132/34 97/132/34 99/133/34 96/134/34
f 95/134/10 98/133/10 99/133/10 96/134/10
f 100/132/35 102/134/35 105/133/35 103/132/35
f 101/134/1 102/134/1 105/133/1 104/133/1
f 97/132/36 94/132/36 100/132/36 103/132/36
f 99/135/37 97/136/37 103/110/37 105/137/37
f 94/132/38 96/134/38 102/134/38 100/132/38
f 98/133/39 95/134/39 101/134/39 104/133/39
f 99/135/40 98/135/40 104/138/40 105/137/40
f 95/134/41 96/134/41 102/134/41 101/134/41
f 113/66/5 112/75/5 120/139/5 121/140/5
f 50/63/42 49/79/42 107/79/42 108/63/42
f 54/75/43 53/71/43 111/71/43 112/75/43
f 49/79/44 48/67/44 106/67/44 107/79/44
f 48/67/45 55/66/45 113/66/45 106/67/45
f 53/71/46 52/70/46 110/70/46 111/71/46
f 52/70/47 51/73/47 109/73/47 110/70/47
f 55/66/48 54/75/48 112/75/48 113/66/48
f 109/62/2 108/63/2 116/141/2 117/142/2
f 108/63/6 107/79/6 115/143/6 116/141/6
f 112/75/8 111/71/8 119/144/8 120/139/8
f 107/79/4 106/67/4 114/145/4 115/143/4
f 106/67/7 113/66/7 121/140/7 114/145/7
f 111/71/3 110/70/3 118/146/3 119/144/3
f 110/70/9 109/73/9 117/147/9 118/146/9
f 122/40/11 36/39/11 126/49/11
f 125/148/11 124/48/11 38/47/11 39/149/11
f 146/150/13 145/51/13 148/50/13 149/151/13
f 3/5/3 142/15/3 138/14/3 4/2/3
f 6/7/6 141/22/6 128/13/6 7/4/6
f 7/4/4 128/13/4 140/12/4 8/3/4
f 5/8/2 139/23/2 141/22/2 6/7/2
f 2/6/8 143/10/8 142/15/8 3/5/8
f 8/3/7 140/12/7 127/11/7 1/9/7
f 4/2/9 138/14/9 139/26/9 5/1/9
f 1/9/5 127/11/5 143/10/5 2/6/5
f 141/22/8 128/13/8 131/27/8 133/29/8
f 128/13/3 140/12/3 132/20/3 131/27/3
f 140/12/9 127/11/9 130/16/9 132/20/9
f 127/11/2 143/10/2 135/19/2 130/16/2
f 129/34/13 28/33/13 27/32/13 26/31/13 133/152/13 136/153/13
f 17/12/10 23/11/10 127/11/10 140/12/10
f 23/11/10 22/10/10 143/10/10 127/11/10
f 137/15/10 142/15/10 143/10/10 22/10/10
f 21/14/10 138/14/10 142/15/10 137/15/10
f 20/23/10 19/22/10 141/22/10 139/23/10
f 21/14/10 20/26/10 139/26/10 138/14/10
f 19/22/10 18/13/10 128/13/10 141/22/10
f 18/13/10 17/12/10 140/12/10 128/13/10
f 146/150/13 34/154/13 38/155/13 145/51/13
f 144/156/13 126/52/13 36/157/13 32/158/13
f 144/159/24 32/160/24 33/161/24 35/162/24 34/163/24 146/164/24
f 147/165/13 150/53/13 126/52/13 144/156/13
f 144/156/13 146/150/13 149/151/13 147/165/13
f 166/166/4 159/167/4 152/64/4 158/78/4
f 164/168/8 160/169/8 154/68/8 156/74/8
f 165/170/6 166/166/6 158/78/6 157/77/6
f 161/171/5 164/168/5 156/74/5 151/65/5
f 160/169/3 162/172/3 153/69/3 154/68/3
f 159/167/7 161/171/7 151/65/7 152/64/7
f 40/55/7 47/54/7 161/171/7 159/167/7
f 45/60/3 44/59/3 162/172/3 160/169/3
f 44/59/9 43/58/9 163/173/9 162/172/9
f 47/54/5 46/61/5 164/168/5 161/171/5
f 43/174/2 42/175/2 165/170/2 163/176/2
f 42/175/6 41/56/6 166/166/6 165/170/6
f 46/61/8 45/60/8 160/169/8 164/168/8
f 41/56/4 40/55/4 159/167/4 166/166/4
f 35/177/49 33/178/49 37/179/49 39/180/49
f 123/41/11 125/148/11 39/149/11 37/42/11
f 36/85/50 58/86/50 56/87/50 32/84/50
f 121/181/1 120/182/1 119/183/1 118/184/1 117/185/1 116/186/1 115/187/1 114/188/1
l 27 136
o pump
v -0.660255 0.635512 -11.161612
v -0.923859 -0.000884 -11.161612
v -0.660255 -0.637280 -11.161612
v -0.023859 -0.900884 -11.161612
v 0.612537 -0.637280 -11.161612
v 0.876141 -0.000884 -11.161612
v 0.612537 0.635512 -11.161612
v -0.660255 0.635513 -5.961611
v -0.923859 -0.000883 -5.961611
v -0.660255 -0.637280 -5.961611
v -0.023859 -0.900884 -5.961611
v 0.612537 -0.637280 -5.961611
v 0.876141 -0.000883 -5.961611
v 0.612537 0.635513 -5.961611
v -0.383859 0.295972 -11.761610
v -0.533859 -0.058028 -11.761610
v -0.383859 -0.418028 -11.761610
v -0.023859 -0.568028 -11.761610
v 0.336141 -0.418028 -11.761610
v 0.486141 -0.058028 -11.761610
v 0.336141 0.295972 -11.761610
v -0.023859 0.445972 -11.761610
vn 0.9239 -0.3827 -0.0000
vn 0.3827 -0.9239 -0.0000
vn -0.3827 -0.9239 -0.0000
vn -0.9239 -0.3827 -0.0000
vn 0.9239 0.3827 -0.0000
vn -0.9239 0.3827 -0.0000
vn 0.8042 -0.3338 -0.4917
vn 0.3411 -0.8217 -0.4566
vn -0.3411 -0.8217 -0.4566
vn -0.8042 -0.3338 -0.4917
vn 0.7773 0.3246 -0.5390
vn -0.7773 0.3246 -0.5390
vn -0.0000 -0.0000 1.0000
vn 0.3152 0.7564 -0.5732
vn -0.3152 0.7564 -0.5732
vn -0.0000 1.0000 -0.0000
vn -0.0000 0.9536 -0.3012
vt 0.898438 0.398438
vt 0.898438 0.476562
vt 0.273438 0.476562
vt 0.273438 0.398438
vt 0.898438 0.460938
vt 0.898438 0.539062
vt 0.273438 0.539062
vt 0.273438 0.460938
vt 0.898438 0.382812
vt 0.273438 0.382812
vt 0.898438 0.554688
vt 0.273438 0.554688
vt 0.968750 0.429688
vt 0.968750 0.468750
vt 0.968750 0.460938
vt 0.968750 0.507812
vt 0.968750 0.414062
vt 0.968750 0.515625
vt 0.046875 0.554688
vt 0.015625 0.484375
vt 0.046875 0.414062
vt 0.117188 0.382812
vt 0.187500 0.414062
vt 0.210938 0.484375
vt 0.187500 0.554688
s 0
usemtl shotgun
f 171/189/51 172/190/51 179/191/51 178/192/51
f 170/193/52 171/194/52 178/195/52 177/196/52
f 169/197/53 170/193/53 177/196/53 176/198/53
f 168/190/54 169/189/54 176/192/54 175/191/54
f 172/190/55 173/199/55 180/200/55 179/191/55
f 167/199/56 168/190/56 175/191/56 174/200/56
f 172/190/57 171/189/57 185/201/57 186/202/57
f 171/194/58 170/193/58 184/203/58 185/204/58
f 170/193/59 169/197/59 183/205/59 184/203/59
f 169/189/60 168/190/60 182/202/60 183/201/60
f 173/199/61 172/190/61 186/202/61 187/206/61
f 168/190/62 167/199/62 181/206/62 182/202/62
f 174/207/63 175/208/63 176/209/63 177/210/63 178/211/63 179/212/63 180/213/63
f 173/194/64 187/204/64 188/203/64
f 181/205/65 167/197/65 188/203/65
f 173/194/66 167/197/66 174/198/66 180/195/66
f 188/203/67 167/197/67 173/194/67
o shell
v 2.800000 0.210000 -0.100000
v 2.800000 0.210000 0.850000
v 2.948492 0.148492 -0.100000
v 2.948492 0.148492 0.850000
v 3.010000 0.000000 -0.100000
v 3.010000 -0.000000 0.850000
v 2.948492 -0.148492 -0.100000
v 2.948492 -0.148492 0.850000
v 2.800000 -0.210000 -0.100000
v 2.800000 -0.210000 0.850000
v 2.651508 -0.148492 -0.100000
v 2.651508 -0.148492 0.850000
v 2.590000 0.000000 -0.100000
v 2.590000 -0.000000 0.850000
v 2.651508 0.148492 -0.100000
v 2.651508 0.148492 0.850000
v 2.800000 0.210000 1.220000
v 2.950000 0.150000 1.220000
v 3.010000 0.000000 1.220000
v 2.950000 -0.150000 1.220000
v 2.800000 -0.210000 1.220000
v 2.650000 -0.150000 1.220000
v 2.590000 0.000000 1.220000
v 2.650000 0.150000 1.220000
v 2.800000 0.231000 1.260000
v 2.963342 0.163342 1.260000
v 3.031000 -0.000000 1.260000
v 2.963342 -0.163342 1.260000
v 2.800000 -0.231000 1.260000
v 2.636658 -0.163342 1.260000
v 2.569000 -0.000000 1.260000
v 2.636658 0.163342 1.260000
v 2.570000 0.000000 1.230000
v 2.640000 0.160000 1.230000
v 2.800000 -0.230000 1.230000
v 2.640000 -0.160000 1.230000
v 3.030000 0.000000 1.230000
v 2.960000 -0.160000 1.230000
v 2.800000 0.230000 1.230000
v 2.960000 0.160000 1.230000
v 2.800000 0.189000 -0.100000
v 2.933643 0.133643 -0.100000
v 2.989000 0.000000 -0.100000
v 2.933643 -0.133643 -0.100000
v 2.800000 -0.189000 -0.100000
v 2.666357 -0.133643 -0.100000
v 2.611000 0.000000 -0.100000
v 2.666357 0.133643 -0.100000
vn 0.3827 0.9239 -0.0000
vn 0.9239 0.3827 -0.0000
vn 0.9239 -0.3827 -0.0000
vn 0.3827 -0.9239 -0.0000
vn -0.3827 -0.9239 -0.0000
vn -0.9239 -0.3827 -0.0000
vn 0.9262 0.3770 -0.0027
vn -0.9239 0.3827 -0.0000
vn -0.3827 0.9239 -0.0000
vn -0.0000 -0.0000 -1.0000
vn -0.9165 0.3902 -0.0880
vn -0.3770 -0.9262 -0.0027
vn -0.3770 0.9262 -0.0027
vn 0.3770 0.9262 -0.0027
vn 0.9262 -0.3770 -0.0027
vn -0.9262 -0.3770 -0.0027
vn 0.3770 -0.9262 -0.0027
vn -0.9262 0.3770 -0.0027
vn -0.0000 -0.0000 1.0000
vn -0.3902 -0.9165 -0.0881
vn 0.9165 -0.3902 -0.0881
vn 0.3902 0.9165 -0.0881
vn -0.3902 0.9165 -0.0881
vn -0.9165 -0.3902 -0.0880
vn 0.3902 -0.9165 -0.0881
vn 0.9165 0.3902 -0.0881
vn 0.4939 0.2071 -0.8445
vn 0.2071 -0.4939 -0.8445
vn -0.4939 -0.2071 -0.8445
vn -0.2071 0.4939 -0.8445
vn 0.2071 0.4939 -0.8445
vn 0.4939 -0.2071 -0.8445
vn -0.2071 -0.4939 -0.8445
vn -0.4939 0.2071 -0.8445
vt 0.500000 0.718750
vt 0.500000 0.156250
vt 0.625000 0.156250
vt 0.625000 0.718750
vt 0.750000 0.156250
vt 0.750000 0.718750
vt 0.875000 0.156250
vt 0.875000 0.718750
vt 1.000000 0.156250
vt 1.000000 0.718750
vt 0.000000 0.718750
vt 0.000000 0.156250
vt 0.125000 0.156250
vt 0.125000 0.718750
vt 0.250000 0.156250
vt 0.250000 0.718750
vt 0.750000 0.062500
vt 0.625000 0.062500
vt 0.625000 0.000000
vt 0.750000 0.000000
vt 0.375000 0.156250
vt 0.375000 0.718750
vt 0.375000 0.125000
vt 0.250000 0.125000
vt 0.250000 0.093750
vt 0.375000 0.093750
vt 0.125000 0.062500
vt 0.000000 0.062500
vt 0.000000 0.000000
vt 0.125000 0.000000
vt 0.500000 0.062500
vt 0.375000 0.062500
vt 0.375000 0.000000
vt 0.500000 0.000000
vt 0.875000 0.062500
vt 0.875000 0.000000
vt 0.250000 0.062500
vt 0.250000 0.000000
vt 1.000000 0.062500
vt 1.000000 0.000000
vt 0.951368 0.951368
vt 0.875000 0.983000
vt 0.798632 0.951368
vt 0.767000 0.875000
vt 0.798632 0.798632
vt 0.875000 0.767000
vt 0.951368 0.798632
vt 0.983000 0.875000
vt 0.125000 0.125000
vt 0.000000 0.125000
vt 0.000000 0.093750
vt 0.125000 0.093750
vt 0.875000 0.125000
vt 0.750000 0.125000
vt 0.750000 0.093750
vt 0.875000 0.093750
vt 0.625000 0.125000
vt 0.500000 0.125000
vt 0.500000 0.093750
vt 0.625000 0.093750
vt 1.000000 0.125000
vt 1.000000 0.093750
vt 0.565625 0.875000
vt 0.543750 0.918750
vt 0.565625 0.940625
vt 0.609375 0.875000
vt 0.500000 0.809375
vt 0.543750 0.831250
vt 0.565625 0.809375
vt 0.500000 0.765625
vt 0.434375 0.875000
vt 0.456250 0.831250
vt 0.434375 0.809375
vt 0.390625 0.875000
vt 0.500000 0.940625
vt 0.456250 0.918750
vt 0.434375 0.940625
vt 0.500000 0.984375
vt 0.140000 0.970000
vt 0.217782 0.937782
vt 0.250000 0.860000
vt 0.217782 0.782218
vt 0.140000 0.750000
vt 0.062218 0.782218
vt 0.030000 0.860000
vt 0.062218 0.937782
s 0
usemtl shell
f 189/214/68 190/215/68 192/216/68 191/217/68
f 191/217/69 192/216/69 194/218/69 193/219/69
f 193/219/70 194/218/70 196/220/70 195/221/70
f 195/221/71 196/220/71 198/222/71 197/223/71
f 197/224/72 198/225/72 200/226/72 199/227/72
f 199/227/73 200/226/73 202/228/73 201/229/73
f 194/230/74 192/231/74 206/232/74 207/233/74
f 201/229/75 202/228/75 204/234/75 203/235/75
f 203/235/76 204/234/76 190/215/76 189/214/76
f 193/219/77 195/221/77 232/221/77 231/219/77
f 222/236/78 221/237/78 219/238/78 220/239/78
f 200/240/79 198/241/79 209/242/79 210/243/79
f 190/244/80 204/245/80 212/246/80 205/247/80
f 192/231/81 190/244/81 205/247/81 206/232/81
f 196/248/82 194/230/82 207/233/82 208/249/82
f 202/250/83 200/240/83 210/243/83 211/251/83
f 198/252/84 196/248/84 208/249/84 209/253/84
f 204/245/85 202/250/85 211/251/85 212/246/85
f 214/254/86 213/255/86 220/256/86 219/257/86 218/258/86 217/259/86 216/260/86 215/261/86
f 224/262/87 223/263/87 217/264/87 218/265/87
f 226/266/88 225/267/88 215/268/88 216/269/88
f 228/270/89 227/271/89 213/272/89 214/273/89
f 227/271/90 222/236/90 220/239/90 213/272/90
f 221/237/91 224/262/91 218/265/91 219/238/91
f 223/274/92 226/266/92 216/269/92 217/275/92
f 225/267/93 228/270/93 214/273/93 215/268/93
f 207/276/94 206/277/94 228/278/94 225/279/94
f 209/280/95 208/281/95 226/282/95 223/283/95
f 211/284/96 210/285/96 224/286/96 221/287/96
f 205/288/97 212/289/97 222/290/97 227/291/97
f 206/277/98 205/288/98 227/291/98 228/278/98
f 208/281/99 207/276/99 225/279/99 226/282/99
f 210/285/100 209/280/100 223/283/100 224/286/100
f 212/289/101 211/284/101 221/287/101 222/290/101
f 229/292/77 230/293/77 231/294/77 232/295/77 233/296/77 234/297/77 235/298/77 236/299/77
f 199/227/77 201/229/77 235/229/77 234/227/77
f 195/221/77 197/223/77 233/223/77 232/221/77
f 201/229/77 203/235/77 236/235/77 235/229/77
f 191/217/77 193/219/77 231/219/77 230/217/77
f 197/224/77 199/227/77 234/227/77 233/224/77
f 203/235/77 189/214/77 229/214/77 236/235/77
f 189/214/77 191/217/77 230/217/77 229/214/77
