{"asset":{"version":"2.0","generator":"Unity 6000.0.62f1 glTFast 6.16.0"},"nodes":[{"name":"Apple.001","mesh":0,"translation":[2.72549438,1.00341392,-1.15596092],"rotation":[0.707106769,0,0,-0.7071067],"scale":[6.9180274,6.918027,6.918027]}],"buffers":[{"uri":"Apple.001.bin","byteLength":3632}],"bufferViews":[{"buffer":0,"byteLength":366,"target":34963},{"buffer":0,"byteLength":3264,"byteOffset":368,"byteStride":48,"target":34962}],"accessors":[{"bufferView":1,"componentType":5126,"count":68,"type":"VEC3","max":[0.008660254,0.01,0.0113921519],"min":[-0.008660254,-0.01,-0.0114983078]},{"bufferView":1,"componentType":5126,"count":68,"type":"VEC3","byteOffset":12},{"bufferView":1,"componentType":5126,"count":68,"type":"VEC4","byteOffset":24},{"bufferView":1,"componentType":5126,"count":68,"type":"VEC2","byteOffset":40},{"bufferView":0,"componentType":5123,"count":183,"type":"SCALAR"}],"images":[{"name":"Foods.jpg","uri":"Foods.jpg","mimeType":"image/jpeg"}],"materials":[{"name":"Foods","pbrMetallicRoughness":{"metallicFactor":0,"baseColorTexture":{"index":0}}}],"meshes":[{"name":"Apple.001","primitives":[{"attributes":{"POSITION":0,"NORMAL":1,"TANGENT":2,"TEXCOORD_0":3},"indices":4,"material":0}]}],"scene":0,"scenes":[{"name":"Apple.001","nodes":[0]}],"textures":[{"source":0}]}