{"asset":{"version":"2.0","generator":"Unity 6000.0.62f1 glTFast 6.16.0"},"nodes":[{"name":"Canned_food_08","mesh":0,"translation":[-0.7403984,0.9287723,-2.416747],"rotation":[0.707106769,0,0,-0.7071067],"scale":[3.957653,3.95765281,3.95765281]}],"buffers":[{"uri":"Canned_food_08.bin","byteLength":2088}],"bufferViews":[{"buffer":0,"byteLength":168,"target":34963},{"buffer":0,"byteLength":1920,"byteOffset":168,"byteStride":48,"target":34962}],"accessors":[{"bufferView":1,"componentType":5126,"count":40,"type":"VEC3","max":[0.01,0.01,0.0142412018],"min":[-0.01,-0.01,-0.01]},{"bufferView":1,"componentType":5126,"count":40,"type":"VEC3","byteOffset":12},{"bufferView":1,"componentType":5126,"count":40,"type":"VEC4","byteOffset":24},{"bufferView":1,"componentType":5126,"count":40,"type":"VEC2","byteOffset":40},{"bufferView":0,"componentType":5123,"count":84,"type":"SCALAR"}],"images":[{"name":"Foods_07.jpg","uri":"Foods_07.jpg","mimeType":"image/jpeg"}],"materials":[{"name":"Foods_07","pbrMetallicRoughness":{"metallicFactor":0,"baseColorTexture":{"index":0}}}],"meshes":[{"name":"Canned_food_08","primitives":[{"attributes":{"POSITION":0,"NORMAL":1,"TANGENT":2,"TEXCOORD_0":3},"indices":4,"material":0}]}],"scene":0,"scenes":[{"name":"Canned_food_08","nodes":[0]}],"textures":[{"source":0}]}