{"asset":{"version":"2.0","generator":"Unity 6000.0.62f1 glTFast 6.16.0"},"nodes":[{"name":"Cereal_01","mesh":0,"translation":[0.4841118,1.13307834,2.29309988],"rotation":[0.707106769,0,0,-0.7071067],"scale":[13.099721,13.09972,13.09972]}],"buffers":[{"uri":"Cereal_01.bin","byteLength":1224}],"bufferViews":[{"buffer":0,"byteLength":72,"target":34963},{"buffer":0,"byteLength":1152,"byteOffset":72,"byteStride":48,"target":34962}],"accessors":[{"bufferView":1,"componentType":5126,"count":24,"type":"VEC3","max":[0.0115731293,0.0034731077,0.0176186133],"min":[-0.0115731312,-0.0034731077,-0.0176186133]},{"bufferView":1,"componentType":5126,"count":24,"type":"VEC3","byteOffset":12},{"bufferView":1,"componentType":5126,"count":24,"type":"VEC4","byteOffset":24},{"bufferView":1,"componentType":5126,"count":24,"type":"VEC2","byteOffset":40},{"bufferView":0,"componentType":5123,"count":36,"type":"SCALAR"}],"images":[{"name":"Foods_01.jpg","uri":"Foods_01.jpg","mimeType":"image/jpeg"}],"materials":[{"name":"Foods_01","pbrMetallicRoughness":{"metallicFactor":0,"baseColorTexture":{"index":0}}}],"meshes":[{"name":"Cereal_01","primitives":[{"attributes":{"POSITION":0,"NORMAL":1,"TANGENT":2,"TEXCOORD_0":3},"indices":4,"material":0}]}],"scene":0,"scenes":[{"name":"Cereal_01","nodes":[0]}],"textures":[{"source":0}]}