{"asset":{"version":"2.0","generator":"Unity 6000.0.62f1 glTFast 6.16.0"},"nodes":[{"name":"Cookies_14","mesh":0,"translation":[-0.7373276,1.20298445,0.242468834],"rotation":[-1.37678768E-07,-0.707106769,-0.7071067,1.37678782E-07],"scale":[47.57555,47.57555,33.5630341]}],"buffers":[{"uri":"Cookies_14.bin","byteLength":1320}],"bufferViews":[{"buffer":0,"byteLength":168,"target":34963},{"buffer":0,"byteLength":1152,"byteOffset":168,"byteStride":48,"target":34962}],"accessors":[{"bufferView":1,"componentType":5126,"count":24,"type":"VEC3","max":[0.000840861467,0.00287029357,0.000466344121],"min":[-0.000840690569,-0.00287029264,-0.000468301645]},{"bufferView":1,"componentType":5126,"count":24,"type":"VEC3","byteOffset":12},{"bufferView":1,"componentType":5126,"count":24,"type":"VEC4","byteOffset":24},{"bufferView":1,"componentType":5126,"count":24,"type":"VEC2","byteOffset":40},{"bufferView":0,"componentType":5123,"count":84,"type":"SCALAR"}],"images":[{"name":"Foods_03.jpg","uri":"Foods_03.jpg","mimeType":"image/jpeg"}],"materials":[{"name":"Foods_03","pbrMetallicRoughness":{"metallicFactor":0,"baseColorTexture":{"index":0}}}],"meshes":[{"name":"Cookies_14","primitives":[{"attributes":{"POSITION":0,"NORMAL":1,"TANGENT":2,"TEXCOORD_0":3},"indices":4,"material":0}]}],"scene":0,"scenes":[{"name":"Cookies_14","nodes":[0]}],"textures":[{"source":0}]}