{"asset":{"version":"2.0","generator":"Unity 6000.0.62f1 glTFast 6.16.0"},"nodes":[{"name":"Fast_food_01","mesh":0,"translation":[-0.7902298,0.952386141,-0.570752144],"rotation":[-1.37678768E-07,-0.707106769,-0.7071067,1.37678782E-07],"scale":[44.4678574,44.4678574,50.9596634]}],"buffers":[{"uri":"Fast_food_01.bin","byteLength":1320}],"bufferViews":[{"buffer":0,"byteLength":168,"target":34963},{"buffer":0,"byteLength":1152,"byteOffset":168,"byteStride":48,"target":34962}],"accessors":[{"bufferView":1,"componentType":5126,"count":24,"type":"VEC3","max":[0.00235641282,0.0028702938,0.000467064616],"min":[-0.00235620374,-0.00287029287,-0.000467581267]},{"bufferView":1,"componentType":5126,"count":24,"type":"VEC3","byteOffset":12},{"bufferView":1,"componentType":5126,"count":24,"type":"VEC4","byteOffset":24},{"bufferView":1,"componentType":5126,"count":24,"type":"VEC2","byteOffset":40},{"bufferView":0,"componentType":5123,"count":84,"type":"SCALAR"}],"images":[{"name":"Foods_04.jpg","uri":"Foods_04.jpg","mimeType":"image/jpeg"}],"materials":[{"name":"Foods_04","pbrMetallicRoughness":{"metallicFactor":0,"baseColorTexture":{"index":0}}}],"meshes":[{"name":"Fast_food_01","primitives":[{"attributes":{"POSITION":0,"NORMAL":1,"TANGENT":2,"TEXCOORD_0":3},"indices":4,"material":0}]}],"scene":0,"scenes":[{"name":"Fast_food_01","nodes":[0]}],"textures":[{"source":0}]}