{"asset":{"version":"2.0","generator":"Unity 6000.0.62f1 glTFast 6.16.0"},"nodes":[{"name":"Fast_food_09","mesh":0,"translation":[-1.33826828,0.976198852,-1.218566],"rotation":[0.707106769,0,0,-0.7071067],"scale":[8.580966,8.580965,8.580965]}],"buffers":[{"uri":"Fast_food_09.bin","byteLength":2240}],"bufferViews":[{"buffer":0,"byteLength":174,"target":34963},{"buffer":0,"byteLength":2064,"byteOffset":176,"byteStride":48,"target":34962}],"accessors":[{"bufferView":1,"componentType":5126,"count":43,"type":"VEC3","max":[0.0131807812,0.0133453906,0.0005331626],"min":[-0.0131807812,-0.0123552345,-0.01]},{"bufferView":1,"componentType":5126,"count":43,"type":"VEC3","byteOffset":12},{"bufferView":1,"componentType":5126,"count":43,"type":"VEC4","byteOffset":24},{"bufferView":1,"componentType":5126,"count":43,"type":"VEC2","byteOffset":40},{"bufferView":0,"componentType":5123,"count":87,"type":"SCALAR"}],"images":[{"name":"Foods_04.jpg","uri":"Foods_04.jpg","mimeType":"image/jpeg"}],"materials":[{"name":"Foods_04","pbrMetallicRoughness":{"metallicFactor":0,"baseColorTexture":{"index":0}}}],"meshes":[{"name":"Fast_food_09","primitives":[{"attributes":{"POSITION":0,"NORMAL":1,"TANGENT":2,"TEXCOORD_0":3},"indices":4,"material":0}]}],"scene":0,"scenes":[{"name":"Fast_food_09","nodes":[0]}],"textures":[{"source":0}]}