{"asset":{"version":"2.0","generator":"Unity 6000.0.62f1 glTFast 6.16.0"},"nodes":[{"name":"Water","mesh":0,"translation":[-1.15246391,0.978032,-2.9892168],"rotation":[0.707106769,0,0,-0.7071067],"scale":[4.00623,4.0062294,3.79003644]}],"buffers":[{"uri":"Water.bin","byteLength":6252}],"bufferViews":[{"buffer":0,"byteLength":780,"target":34963},{"buffer":0,"byteLength":5472,"byteOffset":780,"byteStride":48,"target":34962}],"accessors":[{"bufferView":1,"componentType":5126,"count":114,"type":"VEC3","max":[0.01,0.01,0.05351767],"min":[-0.01,-0.01,-0.0243607163]},{"bufferView":1,"componentType":5126,"count":114,"type":"VEC3","byteOffset":12},{"bufferView":1,"componentType":5126,"count":114,"type":"VEC4","byteOffset":24},{"bufferView":1,"componentType":5126,"count":114,"type":"VEC2","byteOffset":40},{"bufferView":0,"componentType":5123,"count":390,"type":"SCALAR"}],"images":[{"name":"Foods_07.jpg","uri":"Foods_07.jpg","mimeType":"image/jpeg"}],"materials":[{"name":"Foods_07","pbrMetallicRoughness":{"metallicFactor":0,"baseColorTexture":{"index":0}}}],"meshes":[{"name":"Water","primitives":[{"attributes":{"POSITION":0,"NORMAL":1,"TANGENT":2,"TEXCOORD_0":3},"indices":4,"material":0}]}],"scene":0,"scenes":[{"name":"Water","nodes":[0]}],"textures":[{"source":0}]}